Coordinates
version=1
nRows=7
nColumns=46
inDegrees=yes

Units are S.I. units (second, meters, Newtons, ...)
Angles are in degrees.

endheader
time	pelvis_tilt	pelvis_list	pelvis_rotation	pelvis_tx	pelvis_ty	pelvis_tz	bb_angle	bb_tx	bb_ty	bb_tz	hip_flexion_r	hip_adduction_r	hip_rotation_r	knee_angle_r	knee_angle_r_beta	ankle_angle_r	subtalar_angle_r	mtp_angle_r	crank_angle_r	hip_flexion_l	hip_adduction_l	hip_rotation_l	knee_angle_l	knee_angle_l_beta	ankle_angle_l	subtalar_angle_l	mtp_angle_l	crank_angle_l	lumbar_extension	lumbar_bending	lumbar_rotation	arm_flex_r	arm_add_r	arm_rot_r	elbow_flex_r	pro_sup_r	wrist_flex_r	wrist_dev_r	arm_flex_l	arm_add_l	arm_rot_l	elbow_flex_l	pro_sup_l	wrist_flex_l	wrist_dev_l
      2.50000000	    -13.97903144	      3.66898527	     -1.16276552	      0.19205313	      1.06852247	     -0.21929258	      0.00000000	      0.50000000	      0.00000000	      0.25000000	     58.18414843	     -0.25535476	     10.26473603	     54.73902600	      0.95537623	     14.29556992	    -15.59032011	      0.00000000	      0.00000000	     54.21384744	     -6.97577235	     -2.19091421	     87.35573606	      1.52464521	     -9.18959559	     -7.52565641	      0.00000000	      0.00000000	    -65.91851194	      2.73070993	     -2.66814120	     84.60802099	      0.05997500	     15.39626286	     59.76130214	     44.07155181	      0.00000000	      0.00000000	     84.67412412	    -22.25328834	     20.46468037	     56.27428879	     43.44576688	      0.00000000	      0.00000000
      2.50500000	    -13.99913915	      3.80423066	     -1.06612529	      0.19223856	      1.06855105	     -0.21914041	      0.00000000	      0.50000000	      0.00000000	      0.25000000	     57.62224384	     -0.42741033	     10.34289593	     53.71799891	      0.93755595	     13.39110626	    -15.83714726	      0.00000000	      0.00000000	     54.68882253	     -6.82283622	     -2.06404398	     88.26436234	      1.54050373	     -8.73023961	     -7.33449255	      0.00000000	      0.00000000	    -65.85772826	      2.60358068	     -2.89299776	     84.50445197	      0.22511805	     15.23918814	     59.55719288	     44.12992323	      0.00000000	      0.00000000	     84.78755031	    -22.52225633	     21.02817068	     56.19790657	     43.53156449	      0.00000000	      0.00000000
      2.51000000	    -14.04988239	      4.05626790	     -0.90809464	      0.19234206	      1.06867626	     -0.21932446	      0.00000000	      0.50000000	      0.00000000	      0.25000000	     57.05859831	     -0.72069719	     10.62383933	     52.64423861	      0.91881530	     12.61319221	    -15.98423684	      0.00000000	      0.00000000	     55.16402392	     -6.45398263	     -1.94625704	     89.10495844	      1.55517490	     -8.21649412	     -7.25252057	      0.00000000	      0.00000000	    -65.79001254	      2.49386265	     -3.26455105	     84.33671047	      0.37047325	     14.96135794	     59.58282117	     44.26801941	      0.00000000	      0.00000000	     84.87608368	    -22.80522271	     21.54450672	     56.29012048	     43.64149211	      0.00000000	      0.00000000
      2.51500000	    -14.03641748	      4.26644916	     -0.81087856	      0.19255049	      1.06904942	     -0.21930853	      0.00000000	      0.50000000	      0.00000000	      0.25000000	     56.38810052	     -0.95105916	     10.81276826	     51.51503812	      0.89910703	     11.55738147	    -16.10212548	      0.00000000	      0.00000000	     55.55986173	     -6.24871552	     -1.94245788	     89.93100308	      1.56959210	     -7.77307162	     -7.19381893	      0.00000000	      0.00000000	    -65.86823360	      2.29376910	     -3.63587474	     84.04555796	      0.40559335	     14.61475606	     60.17136775	     44.35077107	      0.00000000	      0.00000000	     84.76742490	    -22.72903995	     21.08003742	     56.76560454	     43.67679336	      0.00000000	      0.00000000
      2.52000000	    -14.22952543	      4.51604472	     -0.74407033	      0.19261489	      1.06901574	     -0.21923643	      0.00000000	      0.50000000	      0.00000000	      0.25000000	     55.97862201	     -1.16067230	     11.02959930	     50.39159290	      0.87949921	     10.27783320	    -16.81078790	      0.00000000	      0.00000000	     56.18836314	     -6.01793955	     -1.91172981	     90.77398148	      1.58430485	     -7.29712669	     -7.10450670	      0.00000000	      0.00000000	    -65.56989933	      2.05296453	     -3.95029314	     84.03093782	      0.63497758	     14.41229408	     59.60535027	     44.23763869	      0.00000000	      0.00000000	     84.88793363	    -22.70756938	     21.36138492	     56.31595555	     43.61963089	      0.00000000	      0.00000000
      2.52500000	    -14.29861705	      4.73594727	     -0.62081605	      0.19274700	      1.06924003	     -0.21931906	      0.00000000	      0.50000000	      0.00000000	      0.25000000	     55.41263272	     -1.46170187	     11.12387735	     49.30620963	      0.86055570	      9.43461599	    -16.67222707	      0.00000000	      0.00000000	     56.68543661	     -5.77181492	     -1.85643348	     91.57889081	      1.59835317	     -6.75183423	     -6.85117076	      0.00000000	      0.00000000	    -65.47061973	      1.91796044	     -4.24079907	     83.90656293	      0.76003685	     14.24053146	     59.33167757	     44.22628347	      0.00000000	      0.00000000	     84.96597332	    -22.85910881	     21.83294009	     56.18674408	     43.65686047	      0.00000000	      0.00000000
      2.53000000	    -14.40536439	      4.97839612	     -0.54788437	      0.19283188	      1.06946983	     -0.21939751	      0.00000000	      0.50000000	      0.00000000	      0.25000000	     54.86910555	     -1.72922989	     11.29823163	     48.14609793	      0.84030793	      8.47118251	    -16.98236847	      0.00000000	      0.00000000	     57.20829974	     -5.53599144	     -1.84903871	     92.36243301	      1.61202856	     -6.26702531	     -6.75068914	      0.00000000	      0.00000000	    -65.32921991	      1.71351575	     -4.54251999	     83.80383650	      0.82988575	     14.04682760	     59.21352114	     44.22954576	      0.00000000	      0.00000000	     85.04056308	    -22.85670035	     21.96015641	     56.09281522	     43.66143651	      0.00000000	      0.00000000
